<?xml version="1.0" encoding="utf-8" ?><svg xmlns="http://www.w3.org/2000/svg" xmlns:xlink="http://www.w3.org/1999/xlink" width="1024" height="1024" viewBox="0 0 1024 1024"><path fill="#22282D" d="M154.656 672.747C151.649 671.831 144.587 670.758 141.009 669.986C127.257 667.016 117.921 661.99 106.785 653.761C72.3804 628.34 57.224 578.308 52.4568 536.906C44.7333 469.83 59.8056 383.992 101.991 329.519C128.707 295.021 169.773 272.034 213.815 276.405C236.797 278.685 257.89 282.677 281.159 279.861C334.271 273.435 383.627 242.32 417.564 201.698C433.7 182.384 447.686 158.949 463.852 139.364C470.052 131.853 477.064 122.34 483.774 115.428C523.627 74.3743 577.043 45.2274 634.086 38.3419C704.013 29.42 774.595 48.9324 830.01 92.5049C905.567 151.992 940.401 240.336 951.488 333.814C959.259 399.333 952.887 474.777 925.749 535.524C922.386 543.052 915.587 557.21 910.519 563.623C909.001 565.949 908.309 567.015 906.435 569.12C923.428 566.839 937.496 573.96 935.793 593.123C934.688 605.558 932.485 617.445 930.567 629.754L918.431 709.545L914.145 737.284C913.512 741.409 912.232 748.56 911.994 752.494C933.743 765.074 954.124 775.051 967.009 798.579C976.505 815.919 977.624 833.451 971.803 852.06C961.695 884.37 935.82 908.16 908.194 926.065C899.576 931.651 891.859 937.076 882.576 941.787C844.491 961.113 800.237 974.625 758.212 981.395C705.497 990.126 651.589 988.546 599.475 976.744C572.379 970.604 541.464 959.412 514.83 950.492C486.854 941.127 458.688 932.339 430.35 924.135C404.963 916.832 381.175 910.786 355.25 905.909C323.245 899.888 295.524 898.105 263.264 896.611C220.276 894.165 176.059 895.867 134.418 883.338C87.0263 869.078 39.4521 831.559 57.076 776.378C67.4996 743.741 97.7156 727.2 127.254 714.547C136.228 710.703 145.664 708.048 154.452 703.643C154.506 693.537 155.196 682.725 154.656 672.747Z"/><path fill="#F2E5D6" d="M154.656 672.747C151.649 671.831 144.587 670.758 141.009 669.986C127.257 667.016 117.921 661.99 106.785 653.761C72.3804 628.34 57.224 578.308 52.4568 536.906C44.7333 469.83 59.8056 383.992 101.991 329.519C128.707 295.021 169.773 272.034 213.815 276.405C236.797 278.685 257.89 282.677 281.159 279.861C334.271 273.435 383.627 242.32 417.564 201.698C433.7 182.384 447.686 158.949 463.852 139.364C470.052 131.853 477.064 122.34 483.774 115.428C523.627 74.3743 577.043 45.2274 634.086 38.3419C704.013 29.42 774.595 48.9324 830.01 92.5049C905.567 151.992 940.401 240.336 951.488 333.814C959.259 399.333 952.887 474.777 925.749 535.524C922.386 543.052 915.587 557.21 910.519 563.623C908.28 563.941 906.682 563.984 904.435 564.06C905.382 557.18 905.806 553.259 905.44 546.367C895.909 542.962 864.879 538.972 854.465 538.372C854.538 535.775 854.832 533.554 853.96 531.147C851.121 528.401 835.035 533.974 830.647 535.277C829.416 526.187 828.217 514.664 820.31 508.665C815.908 505.325 808.827 503.791 803.428 504.828C785.972 508.18 768.596 512.729 751.363 517.193C742.71 519.434 732.541 521.456 724.449 524.876C721.335 526.192 718.277 529.671 716.306 532.459C710.912 540.09 708.754 547.229 706.822 556.184C702.831 557.222 699.693 558.137 695.791 559.456C694.738 522.227 696.145 484.869 695.791 447.767C698.423 447.187 703.437 446.523 704.912 444.37C705.757 440.563 705.57 436.24 705.597 432.344C705.716 415.168 704.862 398.042 705.356 380.865C705.491 376.161 701.19 375.886 697.657 374.901C680.278 371.237 662.863 367.824 645.483 364.176L527.935 339.317L471.517 327.411C465.74 326.202 452.436 323.28 447.202 322.575C444.173 322.166 426.054 325.836 422.061 326.585L373.482 335.71C318.529 345.909 263.662 356.561 208.885 367.663L166.931 375.852C159.396 377.291 151.384 378.508 144.002 380.299C143.883 403.392 143.967 426.485 144.256 449.577C147.777 450.702 151.053 451.722 154.621 452.682L154.656 672.747Z"/><path fill="#F6EEE7" d="M721.528 112.804C722.771 112.961 722.32 112.829 723.413 113.485C725.062 117.402 721.955 119.785 718.648 121.155C717.617 120.843 718.053 121.135 717.365 120.239C718.007 117.148 719.576 115.278 721.528 112.804Z"/><path fill="#EEEAE5" d="M684.35 315.24C685.327 314.717 686.514 314.78 687.428 315.406C688.343 316.031 688.833 317.114 688.7 318.214C688.566 319.314 687.831 320.248 686.794 320.636C685.33 321.184 683.693 320.504 683.049 319.081C682.404 317.657 682.973 315.978 684.35 315.24Z"/><path fill="#EEEAE5" d="M561.036 206.178C562.783 206.711 563.354 206.84 563.906 208.458C563.163 210.101 561.936 210.592 560.37 211.577C558.948 211.869 559.575 212.028 558.407 211.316C558.001 209.232 559.744 207.562 561.036 206.178Z"/><path fill="#EEEAE5" d="M659.435 245.833C663.966 247.19 664.082 249.969 662.375 253.724L661.804 253.207C661.607 249.575 660.251 249.405 659.435 245.833Z"/><path fill="#F6EEE7" d="M753.815 84.7495C755.051 84.8458 755.343 85.0438 756.52 85.4856L756.596 86.1672C755.5 86.9804 754.936 87.3335 753.752 88.0192C753.049 88.497 752.599 88.7418 751.86 89.1561L751.305 88.8277C751.866 86.8457 752.456 86.3896 753.815 84.7495Z"/><path fill="#F6EEE7" d="M489.623 172.384C491.187 172.317 491.127 172.239 492.555 172.818C493.803 174.062 493.795 175.51 494.113 177.317C491.319 176.481 490.487 174.978 489.623 172.384Z"/><path fill="#EEEAE5" d="M727.631 508.842C728.23 509.462 730.154 513.167 730.241 514.256C727.992 514.04 727.674 514.162 726.435 512.773C726.284 511.056 726.837 510.383 727.631 508.842Z"/><path fill="#F6EEE7" d="M625.715 73.899C628.205 75.1147 629.952 78.5016 630.056 81.2076C627.865 79.3339 626.195 76.7673 625.715 73.899Z"/><path fill="#F6EEE7" d="M151.754 338.051C154.215 338.68 156.122 339.434 156.988 342.014C154.585 341.843 151.99 340.664 151.754 338.051Z"/><path fill="#EEEAE5" d="M895.345 503.442L895.717 504.161C894.826 505.888 893.272 506.899 891.742 508.132L891.21 507.345L891.493 506.082C893.003 504.45 893.276 504.419 895.345 503.442Z"/><path fill="#EEEAE5" d="M766.236 110.376C766.582 110.718 766.671 111.03 766.909 111.497C766.479 113.229 765.288 113.944 763.901 115.166L763.247 114.224C763.601 112.584 764.969 111.612 766.236 110.376Z"/><path fill="#F6EEE7" d="M515.156 112.403C515.726 112.519 515.407 112.391 516.01 112.981C515.239 114.397 513.742 115.083 512.32 115.984C511.783 115.811 512.117 115.969 511.49 115.249C512.098 113.95 513.824 113.203 515.156 112.403Z"/><path fill="#F2E5D6" d="M154.452 703.643C154.849 713.532 155.293 737.195 154.37 746.601C161.411 753.177 319.643 809.214 343.342 818.014C354.383 822.047 365.378 826.207 376.324 830.491C386.029 834.325 396.565 838.825 406.47 841.854C463.186 823.453 520.6 802.99 577.249 783.915C579.601 795.521 582.274 810.865 583.769 822.593L592.277 874.654C595.334 887.126 593.288 910.261 614.689 903.883C636.004 897.531 656.983 889.954 678.178 883.125L816.511 838.843C844.749 829.838 873.259 821.547 901.264 811.89C902.428 811.488 902.875 809.648 903.187 808.624L908.77 772.476C909.703 766.436 910.726 758.352 911.994 752.494C933.743 765.074 954.124 775.051 967.009 798.579C976.505 815.919 977.624 833.451 971.803 852.06C961.695 884.37 935.82 908.16 908.194 926.065C899.576 931.651 891.859 937.076 882.576 941.787C844.491 961.113 800.237 974.625 758.212 981.395C705.497 990.126 651.589 988.546 599.475 976.744C572.379 970.604 541.464 959.412 514.83 950.492C486.854 941.127 458.688 932.339 430.35 924.135C404.963 916.832 381.175 910.786 355.25 905.909C323.245 899.888 295.524 898.105 263.264 896.611C220.276 894.165 176.059 895.867 134.418 883.338C87.0263 869.078 39.4521 831.559 57.076 776.378C67.4996 743.741 97.7156 727.2 127.254 714.547C136.228 710.703 145.664 708.048 154.452 703.643Z"/><path fill="#EEEAE5" d="M583.769 822.593C575.33 823.754 554.759 831.467 545.912 834.704L470.269 862.587C454.72 868.288 434.831 876.03 418.904 879.475C395.096 884.625 363.26 867.203 341.927 858.336L267.4 827.974L167.576 788.095C154.867 782.998 141.602 777.824 128.978 772.665C102.349 761.783 147.39 750.862 154.37 746.601C161.411 753.177 319.643 809.214 343.342 818.014C354.383 822.047 365.378 826.207 376.324 830.491C386.029 834.325 396.565 838.825 406.47 841.854C463.186 823.453 520.6 802.99 577.249 783.915C579.601 795.521 582.274 810.865 583.769 822.593Z"/><path fill="#EEEAE5" d="M903.187 808.624C909.659 811.877 920.922 811.842 927.83 815.471C931.376 817.333 935.811 818.539 937.527 822.81C939.016 826.397 936.822 829.522 933.436 830.737C916.02 836.987 898.689 843.414 881.351 849.875L757.863 895.75L705.317 915.144C694.578 919.164 683.403 924.382 672.169 926.679C664.153 928.319 655.761 927.508 647.763 926.136C633.195 923.637 573.98 906.018 563.108 898.763C560.899 897.289 559.063 895.679 558.582 892.985C561.069 881.587 589.284 878.335 592.277 874.654C595.334 887.126 593.288 910.261 614.689 903.883C636.004 897.531 656.983 889.954 678.178 883.125L816.511 838.843C844.749 829.838 873.259 821.547 901.264 811.89C902.428 811.488 902.875 809.648 903.187 808.624Z"/><path fill="#F6EEE7" d="M87.4508 804.961C86.2617 802.946 85.7021 802.557 85.9195 800.587C87.1705 799.447 88.5605 799.437 90.2837 799.134C90.921 802.424 91.4169 808.316 87.6055 809.948C86.4808 809.622 82.9949 808.373 82.3317 807.517C84.4596 805.543 85.0136 807.703 87.4508 804.961Z"/><path fill="#EEEAE5" d="M87.4508 804.961C86.2617 802.946 85.7021 802.557 85.9195 800.587C87.1705 799.447 88.5605 799.437 90.2837 799.134C89.9052 802.118 89.6626 802.941 87.4508 804.961Z"/><path fill="#EEEAE5" d="M904.435 564.06C906.682 563.984 908.28 563.941 910.519 563.623C909.001 565.949 908.309 567.015 906.435 569.12L905.05 568.699C904.083 567.362 904.394 565.814 904.435 564.06Z"/><path fill="#EEEAE5" d="M159.516 453.886L310.523 494.849C340.882 503.184 371.564 512.275 402.119 519.814L402.113 533.751L403.824 779.348C403.938 789.91 404.108 800.609 404.01 811.185C403.968 815.634 401.539 813.635 402.143 816.21C403.397 816.916 403.867 816.815 404.032 817.793C404.698 821.737 404.924 829.541 404.267 833.286C402.6 834.692 400.888 833.562 399.001 832.796C394.471 831.289 389.983 829.656 385.542 827.902L289.921 792.721C280.117 789.156 204.769 763 200.871 759.71L200.827 758.236C199.943 758.313 197.416 758.791 196.784 758.584C193.03 757.349 189.292 755.898 185.583 754.514L160.044 745.034C159.256 735.689 159.604 723.841 159.628 714.321L159.621 668.076L159.848 607.502C159.793 582.146 159.281 557.041 159.584 531.563C159.032 506.252 159.495 479.318 159.516 453.886Z"/><path fill="#F2E5D6" d="M159.516 453.886L310.523 494.849C340.882 503.184 371.564 512.275 402.119 519.814L402.113 533.751C381.081 529.285 354.374 519.653 332.894 513.528L160.054 464.3C159.806 479.175 160.043 494.12 159.887 508.987C159.816 515.803 160.151 525.011 159.584 531.563C159.032 506.252 159.495 479.318 159.516 453.886Z"/><path fill="#F2E5D6" d="M387.2 816.437C388.27 814.871 388.169 814.862 389.995 814.048C396.218 814.865 390.872 820.595 401.366 822.266C399.344 824.868 398.842 824.171 398.682 826.702L399.206 827.393C399.823 828.215 400.007 828.535 400.481 829.475C400.197 830.91 399.722 831.544 399.001 832.796C394.471 831.289 389.983 829.656 385.542 827.902C387.449 826.743 386.246 826.436 388.401 825.721C390.284 826.361 390.875 826.767 392.616 827.791L393.406 827.469C393.678 825.552 393.821 826.43 393.044 824.726C392.04 824.259 390.387 823.51 389.532 822.868C388.183 821.851 387.328 820.31 387.177 818.627C387.159 818.326 387.141 818.024 387.123 817.723L387.2 816.437Z"/><path fill="#22282D" d="M387.2 816.437C390.853 818.254 392.631 819.63 395.759 822.336C392.769 821.57 389.434 819.757 387.123 817.723L387.2 816.437Z"/><path fill="#22282D" d="M214.441 558.754C224.688 560.431 244.927 567.219 255.908 570.267L344.5 594.469L344.457 672.391C344.467 681.746 345.197 701.357 344.233 709.819C335.832 709.111 305.663 698.766 296.291 695.807L214.092 670.349C215.115 658.892 214.553 641.591 214.536 629.603L214.441 558.754Z"/><path fill="#F3C358" d="M216.912 561.734C244.496 570.255 271.489 577.262 299.316 584.725C308.603 587.216 333.785 593.542 341.523 596.884L341.958 706.877C330.511 704.152 311.878 697.639 300.131 694.013C272.334 685.606 244.618 676.934 216.986 668C216.706 632.579 216.682 597.156 216.912 561.734Z"/><path fill="#22282D" d="M230.985 645.53C238.111 644.972 306.36 666.451 317.721 670.649C319.924 671.464 319.943 671.551 320.657 673.257C318.684 673.249 302.081 668.215 298.741 667.221C277.5 660.907 256.036 654.799 235.027 647.769C233.22 647.164 232.414 646.804 230.985 645.53Z"/><path fill="#22282D" d="M233.123 631.631C233.557 631.617 235.327 631.579 235.613 631.666C246.178 634.918 314.497 652.612 318.262 657.382C314.006 657.187 305.296 654.472 301.013 653.258C290.597 650.272 280.203 647.211 269.831 644.075C264.582 642.493 235.462 634.241 233.123 631.631Z"/><path fill="#22282D" d="M257.644 624.029C258.024 624.006 258.624 623.951 258.966 624.034C278.785 628.807 298.568 634.7 318.021 640.808C319.653 641.32 320.787 642.141 321.855 643.421C321.087 643.496 320.1 643.566 319.348 643.357C299.565 637.848 279.721 632.308 260.084 626.309C258.558 625.843 258.474 625.25 257.644 624.029Z"/><path fill="#22282D" d="M229.544 592.626C235.701 592.495 256.482 597.843 261.768 601.972C258.021 602.361 231.632 595.549 229.544 592.626Z"/><path fill="#22282D" d="M229.371 578.594C234.014 578.898 258.101 584.924 260.776 587.343C255.658 587.956 232.032 582.617 229.371 578.594Z"/><path fill="#22282D" d="M230.621 609.169C235.953 609.218 252.518 612.492 255.358 616.763C251.983 616.616 232.178 611.225 230.621 609.169Z"/><path fill="#22282D" d="M236.156 619.562C239.987 619.541 241.119 619.931 243.913 622.471C240.203 622.094 238.756 622.217 236.156 619.562Z"/><path fill="#22282D" d="M234.209 503.95C238.188 504.219 243.233 505.436 247.223 506.613C268.571 512.913 290.918 517.648 311.855 525.073C317.348 527.599 320.711 533.869 321.362 539.492C322.29 547.511 320.485 552.2 313.711 556.518C312.098 556.547 310.484 556.455 308.884 556.243C296.371 554.62 282.248 549.095 269.959 545.91C257.909 542.903 246.125 540.193 234.575 535.449C227.08 532.37 225.108 522.021 226.411 514.797C227.381 509.416 229.745 506.818 234.209 503.95Z"/><path fill="#F2E5D6" d="M235.348 509.359C246.11 510.538 262.47 516.377 273.237 519.229C280.769 521.225 308.208 527.59 312.648 531.932C315.403 534.68 316.861 538.468 316.659 542.353C316.463 546.874 315.082 549.101 311.896 552.023C301.215 550.237 288.927 546.131 278.284 543.353C266.121 540.018 253.862 537.154 241.828 533.369C229.31 529.433 226.555 519.005 235.348 509.359Z"/><path fill="#22282D" d="M237.346 513.471C239.452 513.406 241.957 513.575 244.01 514.12C261.429 518.706 278.803 523.667 296.269 528.093C306.066 530.575 318.094 534.054 309.82 546.626C286.497 542.177 261.086 533.892 238.469 526.623C233.694 525.089 235.137 516.965 237.346 513.471Z"/><path fill="#454647" d="M263.523 525.426C266.603 525.517 275.564 528.369 278.426 529.9L278.447 530.438C276.404 530.498 276.311 530.419 274.368 529.646C270.245 528.153 262.791 530.69 260.083 527.772C261.782 526.87 261.919 528.198 263.956 527.567L263.523 525.426Z"/><path fill="#F2E5D6" d="M162.955 739.529C163.699 739.45 164.444 739.391 165.191 739.351C167.16 739.263 168.066 739.43 169.533 740.724C170.324 742.787 170.146 741.975 169.819 744.294C165.037 744.744 164.522 743.857 162.955 739.529Z"/><path fill="#F3C358" d="M916.052 576.165C926.962 574.896 931.813 582.143 931.049 592.417C929.651 611.244 925.789 629.954 922.978 648.629L906.666 752.982C903.857 770.743 900.501 789.246 898.332 807.038C861.387 819.358 824.294 831.226 787.059 842.641L757.84 851.974C753.942 853.224 745.45 856.182 741.75 856.759C740.984 855.88 741.226 856.055 740.279 855.404C739.975 856.272 739.735 856.807 739.365 857.647C736.837 859.151 721.186 863.986 718.042 863.938C716.719 863.062 716.343 862.675 714.752 862.443C712.486 864.027 715.026 862.66 714.294 865.485C710.715 867.764 682.1 876.092 676.08 878.121C655.249 885.144 634.158 892.369 613.118 898.738L615.183 891.876C616.563 886.368 619.743 859.525 621.134 857.164C622.548 856.816 622.918 856.824 624.159 856.041L624.346 854.784L623.765 854.313C622.182 854.792 622.766 854.828 621.267 854.6C620.836 850.902 622.685 842.717 623.097 838.606C625.953 810.14 630.935 781.907 635.145 753.619L643.79 693.858C645.326 683.281 646.768 672.691 648.643 662.167C651.612 645.5 669.514 642.926 683.225 639.36L709.272 632.509C722.734 628.944 748.373 621.098 761.083 619.767C761.827 626.797 762.805 637.161 768.891 640.997C784.561 650.877 802.759 637.992 810.305 624.034C813.97 617.254 819.553 604.224 826.189 601.472C836.697 597.114 848.838 593.835 859.783 590.71C871.253 587.446 882.759 584.31 894.299 581.3C900.979 579.557 909.408 577.208 916.052 576.165Z"/><path fill="#E7BB60" d="M635.326 864.039C637.177 863.936 638.787 863.538 639.999 864.488C639.707 867.992 639.559 867.619 642.345 869.321C642.579 871.056 642.629 870.151 641.499 872.088L640.067 873.108L639.125 872.826C637.768 870.673 637.319 867.832 635.665 864.675L635.326 864.039Z"/><path fill="#E7BB60" d="M639.48 847.393C641.071 847.254 641.495 847.313 642.513 848.327L642.507 849.467C641.632 851.278 641.458 851.281 639.603 852.282C637.882 851.38 637.146 851.222 636.313 849.728C637.266 848.102 637.456 848.425 639.48 847.393Z"/><path fill="#EEEAE5" d="M406.574 520.322C413.307 518.438 421.478 516.816 428.515 514.991C453.768 508.342 479.063 501.859 504.4 495.54L690.643 448.546C690.73 453.019 690.801 457.208 690.684 461.689C690.496 494.391 689.958 528.118 690.611 560.75L681.788 563.021C680.404 556.238 679.183 551.438 672.966 547.119C666.999 542.972 660.295 544.49 653.524 546.253C633.822 551.386 614.106 556.783 594.436 562.171C583.067 565.524 571.15 567.851 560.109 572.155C556.884 573.411 551.797 577.835 550.131 580.816C543.336 592.98 547.977 610.057 550.142 622.989L555.755 657.565C559.718 682.228 563.82 706.868 568.06 731.485C570.685 746.952 573.245 763.692 576.52 778.981C525.028 797.531 470.628 813.151 418.746 831.976C415.621 832.847 412.992 834.585 410.15 833.735C408.994 832.28 409.286 830.339 409.288 828.387L409.316 820.273C409.178 819.125 409.155 817.351 409.106 816.144C409.705 812.655 408.901 799.421 408.822 795.36L408.114 746.259L407.376 623.788C407.187 596.461 406.587 568.355 406.92 541.065C406.309 535.358 406.563 526.221 406.574 520.322Z"/><path fill="#B7B2AB" d="M406.574 520.322C413.307 518.438 421.478 516.816 428.515 514.991C453.768 508.342 479.063 501.859 504.4 495.54L690.643 448.546C690.73 453.019 690.801 457.208 690.684 461.689C665.081 467.208 637.873 474.897 612.356 481.455L485.971 513.675L436.913 525.816C427.249 528.218 416.834 531.337 407.128 533.059C407.123 535.478 407.228 538.732 406.92 541.065C406.309 535.358 406.563 526.221 406.574 520.322Z"/><path fill="#F2E5D6" d="M413.374 819.958C414.319 821.098 414.38 821.236 415.805 821.642L418.858 821.031C418.981 821.617 418.983 821.265 418.555 822.041L418.067 821.158C418.401 823.573 414.158 828.089 412.259 829.652L409.288 828.387L409.316 820.273C411.212 820.56 411.556 820.385 413.374 819.958Z"/><path fill="#EEEAE5" d="M409.288 828.387L412.259 829.652C414.33 830.506 416.576 831.569 418.746 831.976C415.621 832.847 412.992 834.585 410.15 833.735C408.994 832.28 409.286 830.339 409.288 828.387Z"/><path fill="#F6EEE7" d="M409.106 816.144C411.009 816.616 412.475 816.682 413.62 818.167C413.568 819.13 413.603 819.009 413.374 819.958C411.556 820.385 411.212 820.56 409.316 820.273C409.178 819.125 409.155 817.351 409.106 816.144Z"/><path fill="#F2E5D6" d="M424.513 802.54C425.989 802.645 428.149 802.737 429.348 803.611C431.84 805.428 431.926 810.819 430.005 812.877L428.39 812.585C426.73 811.075 426.783 811.578 426.288 809.746C426.816 808.911 427.17 808.307 427.633 807.434C426.93 805.703 425.326 805.292 423.368 804.22L423.276 803.452L424.513 802.54Z"/><path fill="#F2E5D6" d="M434.352 813.291C436.099 813.181 435.391 812.897 436.656 813.762C436.5 815.949 432.873 818.678 430.878 818.734C428.993 817.125 428.473 818.145 427.624 816.517C428.278 815.404 428.75 814.368 429.743 813.568C430.836 814.522 431.064 814.862 432.423 815.384C433.992 814.693 433.253 815.175 434.352 813.291Z"/><path fill="#EEEAE5" d="M443.802 327.684C450.575 327.153 495.763 337.185 505.593 339.29L618.959 363.567L666.445 373.47C671.836 374.588 687.365 377.528 692.049 379.433L406.675 444.414C398.894 445.024 367.104 435.738 357.391 433.282L227.618 399.961C206.965 394.602 177.824 385.741 157.408 382.378C174.519 378.579 192.205 375.648 209.459 372.285C242.768 365.607 276.116 359.125 309.502 352.84C353.88 344.392 399.193 334.614 443.802 327.684Z"/><path fill="#22282D" d="M627.559 378.634C629.572 378.316 631.266 377.651 632.234 379.749C631.482 381.496 629.683 382.568 627.866 382.976C620.123 384.717 612.34 386.324 604.574 387.971L558.235 397.919C512.185 407.97 466.234 418.465 420.387 429.403C418.24 429.913 416.151 430.951 414.737 428.991C416.579 424.755 445.665 419.456 451.399 418.138L508.398 405.176C548.141 396.31 587.646 386.639 627.559 378.634Z"/><path fill="#22282D" d="M431.422 339.186C432.782 339.104 432.688 339.078 433.868 339.757L433.688 340.743C429.471 344.472 410.872 346.987 404.616 348.14L364.635 355.644L226.112 382.537C224.222 382.33 224.97 382.702 223.645 381.714L223.708 381.028C224.857 379.617 227.772 378.161 229.487 377.839C238.536 376.14 247.612 374.391 256.632 372.581C282.303 367.483 308 362.513 333.721 357.673L395.895 345.788C406.94 343.67 420.422 340.726 431.422 339.186Z"/><path fill="#EEEAE5" d="M698.149 383.176L699.505 383.129C700.289 384.012 700.219 384.635 700.205 386.103C700.033 404.484 699.91 422.775 700.393 441.154C689.628 443.385 675.971 447.256 665.129 449.986L596.315 467.314C533.981 482.604 471.749 498.302 409.621 514.408C408.558 514.552 408.634 514.475 407.537 514.344C406.424 512.768 406.838 456.731 406.827 449.232C431.132 444.703 457.247 437.817 481.629 432.255L619.75 400.757C644.473 395.025 673.445 387.247 698.149 383.176Z"/><path fill="#EEEAE5" d="M148.854 384.738C178.085 393.103 208.448 400.179 238.007 407.726L402.02 449.788L402.02 514.756C392.185 512.615 380.22 508.959 370.349 506.231L316.274 491.382L149.056 446.104L148.854 384.738Z"/><path fill="#EEEAE5" d="M900.033 550.616C901.492 553.302 899.805 565.965 899.346 569.407L846.188 584.345C835.463 587.361 815.904 590.659 810.236 600.776C801.786 615.858 794.834 636.768 773.421 634.999C766.649 634.44 766.86 619.819 763.524 615.812C759.204 609.803 752.812 610.2 746.335 611.882C716.567 619.61 686.633 627.236 657.029 635.58C638.201 640.887 635.581 659.003 632.948 675.408C632.144 682.6 630.629 689.085 629.719 696.262C629.164 688.916 629.511 677.895 629.501 670.273L629.415 621.712C642.362 619.13 656.226 615.271 669.115 611.924L729.609 596.139C786.534 581.407 843.344 566.232 900.033 550.616Z"/><path fill="#EEEAE5" d="M584.975 609.036C596.213 612.106 607.732 613.82 618.728 617.481C629.195 620.966 623.909 636.797 624.151 644.919C624.286 649.445 625.621 654.047 625.554 658.612C625.54 676.551 624.405 694.706 623.941 712.67C624.363 713.204 624.784 713.739 625.205 714.273C624.771 715.445 624.683 715.393 623.762 716.278C623.905 720.321 625.946 728.198 623.498 731.735L621.262 732.725L621.336 733.863C622.005 734.332 622.668 734.808 623.325 735.292C623.745 738.868 621.267 744.381 621.629 744.899C624.065 748.386 621.107 751.548 620.485 755.375C620.386 755.982 621.643 756.246 621.044 758.79L619.575 759.422C620.337 763.062 620.319 763.035 619.744 766.735C618.659 767.343 616.176 768.493 615.691 769.361C617.04 769.335 616.849 769.332 618.17 769.061L618.705 769.552C618.862 779.5 615.814 790.261 615.104 799.809C615.061 801.373 615.104 802.322 613.969 803.598C612.312 805.461 615.236 807.789 613.775 809.904C610.686 810.262 607.531 808.706 607.957 805.421C608.437 801.721 608.495 797.818 608.512 794.091C608.375 790.482 608.23 786.996 608.484 783.387C608.998 776.076 608.206 768.752 608.067 761.403C607.894 742.563 607.458 723.725 606.76 704.897C606.481 697.157 606.858 669.588 603.931 663.954L603.114 663.468C601.428 664.242 600.433 666.939 599.561 668.711C601.264 674.976 601.745 678.887 601.601 685.453C601.548 687.9 601.08 691.881 601.253 694.189C603.309 718.634 604.398 743.15 604.516 767.681C604.553 771.595 604.249 792.79 605.016 795.286C603.385 799.257 604.944 799.231 605.405 803.258C605.569 804.689 605.532 806.747 605.515 808.222C602.598 807.558 595.702 806.643 594.626 803.749C595.17 802.551 595.294 802.265 595.63 801C595.314 800.724 594.036 799.562 593.965 799.311C591.954 792.151 589.663 780.325 588.948 773.176C586.774 760.66 587.627 752.011 587.104 740.226C585.955 714.285 586.227 688.171 585.823 662.254L585.4 638.819C585.306 632.903 584.043 629.551 587.722 624.77C586.741 624.27 587.16 624.421 585.934 624.494C585.07 622.794 585.039 611.815 584.975 609.036Z"/><path fill="#F2E5D6" d="M594.771 769.438L596.298 767.931L596.884 768.031C596.877 769.362 596.938 768.849 596.337 770.138C600.808 774.255 601.124 775.446 598.466 781.706C596.882 781.936 596.437 781.824 595.232 782.845C594.36 788.513 600.609 784.402 598.893 794.32C600.112 796.752 602.749 795.796 605.016 795.286C603.385 799.257 604.944 799.231 605.405 803.258C605.569 804.689 605.532 806.747 605.515 808.222C602.598 807.558 595.702 806.643 594.626 803.749C595.17 802.551 595.294 802.265 595.63 801C595.314 800.724 594.036 799.562 593.965 799.311C591.954 792.151 589.663 780.325 588.948 773.176C589.724 771.885 590.335 770.915 591.188 769.678C593.031 768.9 592.509 769.155 594.771 769.438Z"/><path fill="#454647" d="M594.771 769.438L596.298 767.931L596.884 768.031C596.877 769.362 596.938 768.849 596.337 770.138C600.808 774.255 601.124 775.446 598.466 781.706C595.885 781.144 594.897 782.217 593.19 781.246C593.724 780.212 593.52 780.767 593.782 779.574C592.309 778.166 591.013 777.521 591.741 775.488C593.544 775.16 594.209 776.298 596.828 776.912L597.476 776.303L597.449 774.525C596.146 772.6 595.741 771.588 594.771 769.438Z"/><path fill="#F2E5D6" d="M608.512 794.091C611.511 796.99 610.314 799.353 612.423 800.708C613.48 800.406 614.101 800.25 615.104 799.809C615.061 801.373 615.104 802.322 613.969 803.598C612.312 805.461 615.236 807.789 613.775 809.904C610.686 810.262 607.531 808.706 607.957 805.421C608.437 801.721 608.495 797.818 608.512 794.091Z"/><path fill="#F2E5D6" d="M598.83 748.173L599.951 748.8C601.026 750.548 600.824 749.651 600.818 751.521C599.772 753.8 599.419 753.899 597.351 755.493L596.452 755.866L595.976 755.294C595.99 752.302 596.918 750.422 598.83 748.173Z"/><path fill="#F2E5D6" d="M592.085 644.241C593.782 644.48 594.971 647.101 594.905 648.818L593.239 650.044C591.735 648.878 589.786 647.262 589.794 645.316L592.085 644.241Z"/><path fill="#F2E5D6" d="M854.716 542.918C862.836 543.144 883.823 546.748 891.695 548.46L639.787 614.524C635.855 615.449 632.232 616.338 628.348 617.441C620.978 613.909 613.454 612.73 606.52 609.468C627.22 605.905 654.307 597.937 675.238 592.527L792.225 562.271L834.032 551.377C838.544 550.23 843.076 549.065 847.602 547.991C849.284 547.593 850.911 549.315 853.067 548.606C854.257 546.784 854.338 545.09 854.716 542.918Z"/><path fill="#F2E5D6" d="M847.279 535.574L848.753 535.446L849.459 536.052C850.202 538.329 849.709 540.719 849.465 543.173L677.969 587.289L630.543 599.632C620.275 602.306 609.642 605.296 599.144 606.926C595.141 607.547 590.101 606.185 586.119 605.284C585.253 604.977 580.937 604.111 579.791 603.855C610.899 594.699 648.312 586.548 680.436 578.458C736.17 564.631 791.786 550.336 847.279 535.574Z"/><path fill="#F3C358" d="M812.834 512.139C820.736 511.314 823.495 520.688 824.855 526.718C815.025 528.395 801.009 532.437 791.054 534.885C770.226 539.846 749.456 545.052 728.75 550.501L717.45 553.501C719.949 545.564 722.749 536.705 731.11 532.985C738.45 529.759 746.601 528.423 754.437 526.735C774.005 522.518 793.164 515.815 812.834 512.139Z"/><path fill="#EEEAE5" d="M653.008 643.782C648.981 647.568 645.992 652.322 644.326 657.591C642.091 664.702 641.333 672.772 640.344 680.166L636.803 705.232C631.748 738.041 626.939 770.887 622.376 803.769L615.254 855.912C613.734 866.857 612.29 886.971 606.756 897.13C606.309 897.952 605.497 897.849 604.692 897.856C599.605 894.351 598.675 881.599 597.771 875.634C596.701 868.625 595.578 861.625 594.402 854.634L580.8 772.621C571 714.073 559.616 655.143 551.54 596.247C550.435 588.192 555.151 579.168 562.902 575.965C572.65 571.938 582.741 569.511 592.97 566.758L638.701 554.417L639.403 555.36L592.162 568.32C588.012 569.455 583.906 570.489 579.608 571.76C571.987 574.014 560.408 576.36 556.007 583.773C553.757 587.562 553.094 592.303 553.614 596.563C554.799 605.951 556.431 615.325 558.002 624.657L565.64 669.491L589.393 807.508C592.264 824.208 594.895 840.949 597.285 857.725C598.282 864.828 600.607 888.952 604.036 893.59L604.805 893.86C608.496 891 610.995 871.659 611.678 866.254C617.948 816.812 624.837 767.45 632.342 718.179L637.272 683.987C638.374 676.111 639.338 666.08 641.628 658.639C643.455 652.63 646.979 647.276 651.776 643.222L653.008 643.782Z"/><path fill="#F3C358" d="M660.484 553.626C669.39 552.269 671.056 557.932 673.276 565.114C662.423 567.244 649.217 571.195 638.208 574.006L568.534 591.783C565.038 592.77 561.173 593.653 557.622 594.54C560.448 582.078 563.43 580.616 575.371 577.259C596.115 571.427 616.919 565.797 637.621 559.817C645.157 557.64 652.827 555.29 660.484 553.626Z"/><path fill="#F2E5D6" d="M823.537 531.101C824.276 530.914 824.344 530.997 825.133 531.027C826.298 532.339 826.451 534.4 826.794 536.207C805.814 542.591 778.23 548.421 756.261 554L639.213 583.776C617.157 589.352 595.126 594.165 573.23 600.437C570.687 601.165 568.577 600.298 565.916 599.606L559.581 598.513C581.235 592.651 604.58 587.515 626.631 581.796C692.171 564.532 757.808 547.633 823.537 531.101Z"/><path fill="#F3C358" d="M559.184 602.139C565.778 604.303 572.793 605.835 579.582 607.234L580.835 722.677L580.395 722.756C579.331 720.29 576.893 703.471 576.174 699.555L559.184 602.139Z"/><path fill="#F3C358" d="M595.859 811.542C601.635 812.688 607.392 813.922 613.13 815.243C611.703 821.592 610.986 828.756 610.114 835.249L606.076 864.887C605.586 867.594 605.282 871.495 604.988 874.335C603.665 854.868 598.703 831.181 595.859 811.542Z"/><path fill="#EEEAE5" d="M782.3 638.586C797.709 633.554 803.334 624.501 810.486 610.62C812.673 606.377 814.988 602.082 818.636 598.882C824.717 593.548 892.784 575.204 904.693 572.564C908.292 571.767 912.043 571.087 915.735 570.999C891.011 578.134 865.562 583.702 841.068 591.82C832.092 594.795 818.468 596.645 814.245 606.079C807.669 620.769 798.902 636.921 781.281 639.791L782.3 638.586Z"/><path fill="#EEEAE5" d="M804.787 508.611L805.332 508.683L805.439 509.065C802.819 510.189 800.511 510.507 797.758 511.187C778.9 515.701 759.799 521.008 740.938 525.262C722.368 529.45 718.008 536.107 713.079 553.651L712.74 553.933L712.172 553.756C712.487 546.795 719.216 532.595 725.948 529.422C735.934 524.715 747.774 522.335 758.528 519.663C773.901 515.787 789.322 512.103 804.787 508.611Z"/><path fill="#EEEAE5" d="M651.776 643.222C653.815 642.08 656.07 640.86 658.318 640.2C686.572 631.899 715.276 625.065 743.722 617.443C747.938 616.313 752.329 615.195 756.68 614.838C748.865 617.85 736.724 620.555 728.274 622.725L681.97 634.702C674.426 636.645 659.62 640.258 653.008 643.782L651.776 643.222Z"/><path fill="#B7B2AB" d="M638.701 554.417C647.675 551.805 669.974 542.65 674.92 555.776L674.505 556.259C671.626 552.431 669.567 551.132 665.305 549.379C655.883 550.144 648.555 553.24 639.403 555.36L638.701 554.417Z"/><path fill="#B7B2AB" d="M674.92 555.776C676.174 558.159 676.685 559.069 676.928 561.745L675.968 561.322L676.684 562.643C675.257 561.216 674.941 558.333 674.505 556.259L674.92 555.776Z"/><path fill="#454647" d="M781.281 639.791C779.03 640.083 778.161 640.081 775.885 639.992L776.607 639.254L775.647 639.7C777.657 638.677 779.986 638.749 782.3 638.586L781.281 639.791Z"/></svg>